<?xml version="1.0" encoding="utf-8"?>
<!-- Generator: Adobe Illustrator 25.0.0, SVG Export Plug-In . SVG Version: 6.00 Build 0)  -->
<svg version="1.1" id="Слой_1" xmlns="http://www.w3.org/2000/svg" xmlns:xlink="http://www.w3.org/1999/xlink" x="0px" y="0px"
	 viewBox="0 0 142.8 154.2" style="enable-background:new 0 0 142.8 154.2;" xml:space="preserve">
<style type="text/css">
	.st0{fill-rule:evenodd;clip-rule:evenodd;fill:#D3C51A;}
</style>
<path class="st0" d="M104.6,152.6c-0.8-14.5-22.9-15.1-23.5,0.4l-80.8,1.2l-0.2-49C23,105,23.1,69.5,0.1,69L0,39.2L80.6,0
	c29.3,5.4,55.3,27.7,62.2,43.9c0,0-3.6,89.4-4.7,108.2L104.6,152.6z M11.2,49.6l0.1,7.3c25.6,9.2,25.7,49.1,1.1,58.9l0.5,25.6h57.8
	c8.7-17.6,35.6-16.9,44.4,0h8.1l5.2-91.8H11.2z M87.2,106.6c-27.4,0-26.2-39.2-0.4-39.2S112.2,106.6,87.2,106.6L87.2,106.6z
	 M51.7,125.9c-17.6,0-16.8-25.2-0.3-25.2S67.8,125.8,51.7,125.9L51.7,125.9z"/>
</svg>
